<svg width="886" height="882" viewBox="0 0 886 882" fill="none" xmlns="http://www.w3.org/2000/svg">
<g clip-path="url(#clip0_3_30)">
<path d="M786.635 -0.993035C800.807 -0.988905 814.804 2.13954 827.629 8.1695C840.454 14.1995 851.791 22.9826 860.833 33.8932C869.875 44.8039 876.399 57.5737 879.941 71.2932C883.483 85.0126 883.956 99.3442 881.325 113.267C878.694 127.19 873.025 140.362 864.722 151.844C856.418 163.326 845.684 172.837 833.285 179.698C820.885 186.559 807.125 190.603 792.983 191.54C778.842 192.477 764.668 190.285 751.471 185.121L575.805 360.71C604.683 402.533 617.498 453.369 611.894 503.88L713.068 534.218C727.388 517.33 747.087 505.886 768.853 501.811C790.619 497.735 813.125 501.276 832.586 511.839C852.048 522.402 867.278 539.343 875.717 559.812C884.155 580.281 885.287 603.031 878.922 624.237C872.557 645.442 859.083 663.81 840.765 676.251C822.448 688.693 800.405 694.45 778.342 692.554C756.278 690.657 735.541 681.224 719.616 665.84C703.691 650.455 693.55 630.058 690.898 608.078L589.763 577.701C568.383 619.397 533.791 652.838 491.392 672.798C448.992 692.759 401.173 698.115 355.406 688.03C309.639 677.945 268.503 652.987 238.425 617.055C208.346 581.124 191.021 536.243 189.154 489.425L189 480.867L189.154 472.348C190.657 434.824 202.101 398.374 222.316 366.723C242.532 335.072 270.792 309.358 304.209 292.209L273.826 191.057C251.598 188.389 230.995 178.063 215.557 161.855C200.119 145.646 190.81 124.567 189.231 102.241L189 95.3789L189.193 89.0569C190.236 73.1743 195.198 57.7973 203.635 44.2994C212.072 30.8015 223.721 19.603 237.543 11.7041C251.364 3.8053 266.928 -0.547901 282.843 -0.966639C298.757 -1.38538 314.528 2.14338 328.746 9.30445C342.964 16.4655 355.187 27.0359 364.322 40.0715C373.458 53.107 379.221 68.2019 381.099 84.0077C382.976 99.8134 380.908 115.838 375.081 130.65C369.253 145.462 359.846 158.6 347.701 168.891L378.046 270.082C428.568 264.48 479.415 277.292 521.247 306.164L696.874 130.535C693.251 121.314 691.079 111.587 690.435 101.701L690.243 95.3789L690.435 89.0569C692.041 64.642 702.875 41.7517 720.739 25.0289C738.604 8.30619 762.162 -0.996803 786.635 -0.993035Z" fill="white"/>
<path d="M738.324 101.396C698.292 119.77 664.871 135.326 663.892 135.938C662.545 136.796 664.994 139.98 673.93 149.535C680.296 156.394 685.561 162.396 685.561 163.008C685.561 164.601 430.312 419.377 428.598 419.377C427.618 419.377 427.251 410.803 427.496 385.938L427.863 352.621L453.939 352.253C468.14 352.131 479.892 351.763 479.892 351.396C479.892 350.906 410.724 164.968 406.439 154.189C405.338 151.249 404.848 150.882 403.991 152.352C403.012 154.189 371.794 237.114 344.617 310.362C336.904 330.94 330.293 348.701 329.926 349.804C329.069 351.886 330.783 352.008 355.512 352.008H381.955V390.837V429.789L367.632 415.703C325.764 374.791 199.547 248.383 199.547 247.281C199.547 246.668 205.423 240.176 212.646 232.949C219.869 225.723 225.5 219.598 225.133 219.231C223.542 217.761 84.1036 154.679 83.2466 155.047C82.1448 155.536 84.5933 161.049 116.668 231.357C130.746 262.347 143.478 290.152 144.702 293.091L147.151 298.481L161.107 284.517L175.063 270.553L234.56 329.961C267.246 362.665 308.87 404.679 327.11 423.297L360.164 457.349H265.777H171.39V437.996C171.39 415.335 170.9 412.885 167.228 413.988C158.291 416.805 0 476.457 0 477.069C0 477.437 6.73318 480.377 14.9354 483.439C23.2601 486.501 61.3332 500.71 99.5287 514.919C137.847 529.25 169.554 540.519 169.921 540.029C170.411 539.539 170.9 529.617 171.145 517.858L171.635 496.545H260.88C319.398 496.545 350.126 496.913 350.126 497.77C350.126 499.117 246.19 604.335 244.843 604.335C244.476 604.335 235.906 596.129 225.868 585.962C215.829 575.918 207.26 567.956 206.77 568.569C206.158 569.304 166.248 656.516 124.992 747.28C120.952 756.221 118.137 763.571 118.749 763.571C120.218 763.571 292.343 685.3 307.033 677.951L313.644 674.644L295.648 656.026L277.652 637.407L312.42 601.886C331.395 582.41 357.348 556.565 369.835 544.438L392.606 522.39L393.34 551.42C393.83 567.344 394.197 626.628 394.197 682.973V785.619L384.159 785.741C366.652 785.986 367.142 782.924 379.629 816.853C395.789 860.337 404.113 881.16 405.093 881.16C405.583 881.16 406.562 879.323 407.296 877.118C408.031 875.035 415.866 853.967 424.68 830.572C433.617 807.177 440.473 787.456 440.105 786.844C439.616 786.109 434.107 785.619 427.741 785.619H416.233V648.799V511.856L440.717 536.354C454.184 549.828 465.202 561.342 465.202 562.077C465.202 562.812 461.407 567.221 456.632 571.876C451.98 576.53 448.063 580.94 448.063 581.675C448.063 583.145 559.466 634.1 560.446 633.12C560.813 632.753 559.222 628.221 557.018 622.954C548.938 604.458 510.62 520.798 509.886 520.063C509.518 519.696 505.234 523.493 500.582 528.76C495.807 533.904 491.278 538.191 490.543 538.191C488.952 538.191 457.857 507.569 457.857 505.977C457.857 505.487 481.606 505.119 510.498 505.119H563.139V536.966C563.139 557.3 563.629 568.814 564.363 568.814C565.832 568.814 618.963 549.093 775.54 490.543C811.655 477.069 809.206 478.049 809.206 477.069C809.206 475.967 802.596 473.272 774.316 462.861C762.196 458.329 742.976 451.224 731.469 446.937C720.083 442.65 699.149 434.933 684.948 429.789C670.87 424.522 638.061 412.395 612.23 402.719C586.399 393.042 564.73 385.08 564.118 385.08C563.629 385.08 563.139 399.412 563.139 416.928V448.775H514.538H465.814L592.52 321.999L719.104 195.345L731.101 206.982C737.59 213.474 743.711 218.496 744.445 218.251C745.547 217.883 814.103 70.1619 814.103 68.202C814.103 66.8546 803.33 71.6317 738.324 101.396Z" fill="#8B5BFF"/>
</g>
<defs>
<clipPath id="clip0_3_30">
<rect width="886" height="882" fill="white"/>
</clipPath>
</defs>
</svg>
