<svg width="2690" height="883" viewBox="0 0 2690 883" fill="none" xmlns="http://www.w3.org/2000/svg">
<g clip-path="url(#clip0_20_20)">
<rect width="2690" height="883" fill="#0A0E12"/>
<path d="M787.635 0.00696511C801.807 0.0110947 815.804 3.13954 828.629 9.1695C841.454 15.1995 852.791 23.9826 861.833 34.8932C870.875 45.8039 877.399 58.5737 880.941 72.2932C884.483 86.0126 884.956 100.344 882.325 114.267C879.694 128.19 874.025 141.362 865.722 152.844C857.418 164.326 846.684 173.837 834.285 180.698C821.885 187.559 808.125 191.603 793.983 192.54C779.842 193.477 765.668 191.285 752.471 186.121L576.805 361.71C605.683 403.533 618.498 454.369 612.894 504.88L714.068 535.218C728.388 518.33 748.087 506.886 769.853 502.811C791.619 498.735 814.125 502.276 833.586 512.839C853.048 523.402 868.278 540.343 876.717 560.812C885.155 581.281 886.287 604.031 879.922 625.237C873.557 646.442 860.083 664.81 841.765 677.251C823.448 689.693 801.405 695.45 779.342 693.554C757.278 691.657 736.541 682.224 720.616 666.84C704.691 651.455 694.55 631.058 691.898 609.078L590.763 578.701C569.383 620.397 534.791 653.838 492.392 673.798C449.992 693.759 402.173 699.115 356.406 689.03C310.639 678.945 269.503 653.987 239.425 618.055C209.346 582.124 192.021 537.243 190.154 490.425L190 481.867L190.154 473.348C191.657 435.824 203.101 399.374 223.316 367.723C243.532 336.072 271.792 310.358 305.209 293.209L274.826 192.057C252.598 189.389 231.995 179.063 216.557 162.855C201.119 146.646 191.81 125.567 190.231 103.241L190 96.3789L190.193 90.0569C191.236 74.1743 196.198 58.7973 204.635 45.2994C213.072 31.8015 224.721 20.603 238.543 12.7041C252.364 4.8053 267.928 0.452099 283.843 0.0333609C299.757 -0.385377 315.528 3.14338 329.746 10.3045C343.964 17.4655 356.187 28.0359 365.322 41.0715C374.458 54.107 380.221 69.2019 382.099 85.0077C383.976 100.813 381.908 116.838 376.081 131.65C370.253 146.462 360.846 159.6 348.701 169.891L379.046 271.082C429.568 265.48 480.415 278.292 522.247 307.164L697.874 131.535C694.251 122.314 692.079 112.587 691.435 102.701L691.243 96.3789L691.435 90.0569C693.041 65.642 703.875 42.7517 721.739 26.0289C739.604 9.30619 763.162 0.00319712 787.635 0.00696511Z" fill="white"/>
<path d="M738.324 102.396C698.292 120.77 664.871 136.326 663.892 136.938C662.545 137.796 664.994 140.98 673.93 150.535C680.296 157.394 685.561 163.396 685.561 164.008C685.561 165.601 430.312 420.377 428.598 420.377C427.618 420.377 427.251 411.803 427.496 386.938L427.863 353.621L453.939 353.253C468.14 353.131 479.892 352.763 479.892 352.396C479.892 351.906 410.724 165.968 406.439 155.189C405.338 152.249 404.848 151.882 403.991 153.352C403.012 155.189 371.794 238.114 344.617 311.362C336.904 331.94 330.293 349.701 329.926 350.804C329.069 352.886 330.783 353.008 355.512 353.008H381.955V391.837V430.789L367.632 416.703C325.764 375.791 199.547 249.383 199.547 248.281C199.547 247.668 205.423 241.176 212.646 233.949C219.869 226.723 225.5 220.598 225.133 220.231C223.542 218.761 84.1036 155.679 83.2466 156.047C82.1448 156.536 84.5933 162.049 116.668 232.357C130.746 263.347 143.478 291.152 144.702 294.091L147.151 299.481L161.107 285.517L175.063 271.553L234.56 330.961C267.246 363.665 308.87 405.679 327.11 424.297L360.164 458.349H265.777H171.39V438.996C171.39 416.335 170.9 413.885 167.228 414.988C158.291 417.805 0 477.457 0 478.069C0 478.437 6.73318 481.377 14.9354 484.439C23.2601 487.501 61.3332 501.71 99.5287 515.919C137.847 530.25 169.554 541.519 169.921 541.029C170.411 540.539 170.9 530.617 171.145 518.858L171.635 497.545H260.88C319.398 497.545 350.126 497.913 350.126 498.77C350.126 500.117 246.19 605.335 244.843 605.335C244.476 605.335 235.906 597.129 225.868 586.962C215.829 576.918 207.26 568.956 206.77 569.569C206.158 570.304 166.248 657.516 124.992 748.28C120.952 757.221 118.137 764.571 118.749 764.571C120.218 764.571 292.343 686.3 307.033 678.951L313.644 675.644L295.648 657.026L277.652 638.407L312.42 602.886C331.395 583.41 357.348 557.565 369.835 545.438L392.606 523.39L393.34 552.42C393.83 568.344 394.197 627.628 394.197 683.973V786.619L384.159 786.741C366.652 786.986 367.142 783.924 379.629 817.853C395.789 861.337 404.113 882.16 405.093 882.16C405.583 882.16 406.562 880.323 407.296 878.118C408.031 876.035 415.866 854.967 424.68 831.572C433.617 808.177 440.473 788.456 440.105 787.844C439.616 787.109 434.107 786.619 427.741 786.619H416.233V649.799V512.856L440.717 537.354C454.184 550.828 465.202 562.342 465.202 563.077C465.202 563.812 461.407 568.221 456.632 572.876C451.98 577.53 448.063 581.94 448.063 582.675C448.063 584.145 559.466 635.1 560.446 634.12C560.813 633.753 559.222 629.221 557.018 623.954C548.938 605.458 510.62 521.798 509.886 521.063C509.518 520.696 505.234 524.493 500.582 529.76C495.807 534.904 491.278 539.191 490.543 539.191C488.952 539.191 457.857 508.569 457.857 506.977C457.857 506.487 481.606 506.119 510.498 506.119H563.139V537.966C563.139 558.3 563.629 569.814 564.363 569.814C565.832 569.814 618.963 550.093 775.54 491.543C811.655 478.069 809.206 479.049 809.206 478.069C809.206 476.967 802.596 474.272 774.316 463.861C762.196 459.329 742.976 452.224 731.469 447.937C720.083 443.65 699.149 435.933 684.948 430.789C670.87 425.522 638.061 413.395 612.23 403.719C586.399 394.042 564.73 386.08 564.118 386.08C563.629 386.08 563.139 400.412 563.139 417.928V449.775H514.538H465.814L592.52 322.999L719.104 196.345L731.101 207.982C737.59 214.474 743.711 219.496 744.445 219.251C745.547 218.883 814.103 71.1619 814.103 69.202C814.103 67.8546 803.33 72.6317 738.324 102.396Z" fill="#8B5BFF"/>
<path d="M1102.56 345.8H1148.64V476.36C1148.64 494.28 1144.54 507.336 1136.35 515.528C1128.33 523.549 1115.36 527.56 1097.44 527.56H1038.56C1020.64 527.56 1007.58 523.549 999.392 515.528C991.371 507.336 987.36 494.28 987.36 476.36V345.8H1033.44V476.36C1033.44 486.6 1038.56 491.72 1048.8 491.72H1087.2C1097.44 491.72 1102.56 486.6 1102.56 476.36V345.8ZM1335.52 525H1286.88L1225.44 417.48V525H1179.36V345.8H1228L1289.44 453.32V345.8H1335.52V525ZM1450.84 525H1358.68V489.16H1381.72V381.64H1358.68V345.8H1450.84V381.64H1427.8V489.16H1450.84V525ZM1560.9 525H1514.82V381.64H1461.06V345.8H1614.66V381.64H1560.9V525ZM1646.61 525H1596.69L1664.53 345.8H1715.73L1783.57 525H1733.65L1722.13 493H1658.13L1646.61 525ZM1669.65 459.72H1710.61L1690.13 399.56L1669.65 459.72ZM1896.2 345.8C1915.49 345.8 1930.08 350.835 1939.98 360.904C1950.05 370.803 1955.08 385.395 1955.08 404.68V466.12C1955.08 485.405 1950.05 500.083 1939.98 510.152C1930.08 520.051 1915.49 525 1896.2 525H1796.36V345.8H1896.2ZM1909 404.68C1909 389.32 1901.32 381.64 1885.96 381.64H1842.44V489.16H1885.96C1901.32 489.16 1909 481.48 1909 466.12V404.68ZM2122.69 525H1980.61V345.8H2122.69V381.64H2026.69V416.2H2102.21V452.04H2026.69V489.16H2122.69V525ZM2135.43 486.6H2181.51V525H2135.43V486.6ZM2358.21 425.16L2322.37 489.16H2286.53L2250.69 425.16V525H2204.61V345.8H2253.25L2304.45 440.52L2355.65 345.8H2404.29V525H2358.21V425.16ZM2534.95 345.8C2554.24 345.8 2568.83 350.835 2578.73 360.904C2588.8 370.803 2593.83 385.395 2593.83 404.68V466.12C2593.83 485.405 2588.8 500.083 2578.73 510.152C2568.83 520.051 2554.24 525 2534.95 525H2435.11V345.8H2534.95ZM2547.75 404.68C2547.75 389.32 2540.07 381.64 2524.71 381.64H2481.19V489.16H2524.71C2540.07 489.16 2547.75 481.48 2547.75 466.12V404.68Z" fill="url(#paint0_linear_20_20)"/>
</g>
<defs>
<linearGradient id="paint0_linear_20_20" x1="972" y1="442" x2="2604" y2="442" gradientUnits="userSpaceOnUse">
<stop stop-color="#8B5BFF"/>
<stop offset="1" stop-color="#5C4B8A"/>
</linearGradient>
<clipPath id="clip0_20_20">
<rect width="2690" height="883" fill="white"/>
</clipPath>
</defs>
</svg>
