<svg width="2690" height="883" viewBox="0 0 2690 883" fill="none" xmlns="http://www.w3.org/2000/svg">
<g clip-path="url(#clip0_20_29)">
<rect width="2690" height="883" fill="#0D1117"/>
<path d="M787.635 0.00696511C801.807 0.0110947 815.804 3.13954 828.629 9.1695C841.454 15.1995 852.791 23.9826 861.833 34.8932C870.875 45.8039 877.399 58.5737 880.941 72.2932C884.483 86.0126 884.956 100.344 882.325 114.267C879.694 128.19 874.025 141.362 865.722 152.844C857.418 164.326 846.684 173.837 834.285 180.698C821.885 187.559 808.125 191.603 793.983 192.54C779.842 193.477 765.668 191.285 752.471 186.121L576.805 361.71C605.683 403.533 618.498 454.369 612.894 504.88L714.068 535.218C728.388 518.33 748.087 506.886 769.853 502.811C791.619 498.735 814.125 502.276 833.586 512.839C853.048 523.402 868.278 540.343 876.717 560.812C885.155 581.281 886.287 604.031 879.922 625.237C873.557 646.442 860.083 664.81 841.765 677.251C823.448 689.693 801.405 695.45 779.342 693.554C757.278 691.657 736.541 682.224 720.616 666.84C704.691 651.455 694.55 631.058 691.898 609.078L590.763 578.701C569.383 620.397 534.791 653.838 492.392 673.798C449.992 693.759 402.173 699.115 356.406 689.03C310.639 678.945 269.503 653.987 239.425 618.055C209.346 582.124 192.021 537.243 190.154 490.425L190 481.867L190.154 473.348C191.657 435.824 203.101 399.374 223.316 367.723C243.532 336.072 271.792 310.358 305.209 293.209L274.826 192.057C252.598 189.389 231.995 179.063 216.557 162.855C201.119 146.646 191.81 125.567 190.231 103.241L190 96.3789L190.193 90.0569C191.236 74.1743 196.198 58.7973 204.635 45.2994C213.072 31.8015 224.721 20.603 238.543 12.7041C252.364 4.8053 267.928 0.452099 283.843 0.0333609C299.757 -0.385377 315.528 3.14338 329.746 10.3045C343.964 17.4655 356.187 28.0359 365.322 41.0715C374.458 54.107 380.221 69.2019 382.099 85.0077C383.976 100.813 381.908 116.838 376.081 131.65C370.253 146.462 360.846 159.6 348.701 169.891L379.046 271.082C429.568 265.48 480.415 278.292 522.247 307.164L697.874 131.535C694.251 122.314 692.079 112.587 691.435 102.701L691.243 96.3789L691.435 90.0569C693.041 65.642 703.875 42.7517 721.739 26.0289C739.604 9.30619 763.162 0.00319712 787.635 0.00696511Z" fill="white"/>
<path d="M738.324 102.396C698.292 120.77 664.871 136.326 663.892 136.938C662.545 137.796 664.994 140.98 673.93 150.535C680.296 157.394 685.561 163.396 685.561 164.008C685.561 165.601 430.312 420.377 428.598 420.377C427.618 420.377 427.251 411.803 427.496 386.938L427.863 353.621L453.939 353.253C468.14 353.131 479.892 352.763 479.892 352.396C479.892 351.906 410.724 165.968 406.439 155.189C405.338 152.249 404.848 151.882 403.991 153.352C403.012 155.189 371.794 238.114 344.617 311.362C336.904 331.94 330.293 349.701 329.926 350.804C329.069 352.886 330.783 353.008 355.512 353.008H381.955V391.837V430.789L367.632 416.703C325.764 375.791 199.547 249.383 199.547 248.281C199.547 247.668 205.423 241.176 212.646 233.949C219.869 226.723 225.5 220.598 225.133 220.231C223.542 218.761 84.1036 155.679 83.2466 156.047C82.1448 156.536 84.5933 162.049 116.668 232.357C130.746 263.347 143.478 291.152 144.702 294.091L147.151 299.481L161.107 285.517L175.063 271.553L234.56 330.961C267.246 363.665 308.87 405.679 327.11 424.297L360.164 458.349H265.777H171.39V438.996C171.39 416.335 170.9 413.885 167.228 414.988C158.291 417.805 0 477.457 0 478.069C0 478.437 6.73318 481.377 14.9354 484.439C23.2601 487.501 61.3332 501.71 99.5287 515.919C137.847 530.25 169.554 541.519 169.921 541.029C170.411 540.539 170.9 530.617 171.145 518.858L171.635 497.545H260.88C319.398 497.545 350.126 497.913 350.126 498.77C350.126 500.117 246.19 605.335 244.843 605.335C244.476 605.335 235.906 597.129 225.868 586.962C215.829 576.918 207.26 568.956 206.77 569.569C206.158 570.304 166.248 657.516 124.992 748.28C120.952 757.221 118.137 764.571 118.749 764.571C120.218 764.571 292.343 686.3 307.033 678.951L313.644 675.644L295.648 657.026L277.652 638.407L312.42 602.886C331.395 583.41 357.348 557.565 369.835 545.438L392.606 523.39L393.34 552.42C393.83 568.344 394.197 627.628 394.197 683.973V786.619L384.159 786.741C366.652 786.986 367.142 783.924 379.629 817.853C395.789 861.337 404.113 882.16 405.093 882.16C405.583 882.16 406.562 880.323 407.296 878.118C408.031 876.035 415.866 854.967 424.68 831.572C433.617 808.177 440.473 788.456 440.105 787.844C439.616 787.109 434.107 786.619 427.741 786.619H416.233V649.799V512.856L440.717 537.354C454.184 550.828 465.202 562.342 465.202 563.077C465.202 563.812 461.407 568.221 456.632 572.876C451.98 577.53 448.063 581.94 448.063 582.675C448.063 584.145 559.466 635.1 560.446 634.12C560.813 633.753 559.222 629.221 557.018 623.954C548.938 605.458 510.62 521.798 509.886 521.063C509.518 520.696 505.234 524.493 500.582 529.76C495.807 534.904 491.278 539.191 490.543 539.191C488.952 539.191 457.857 508.569 457.857 506.977C457.857 506.487 481.606 506.119 510.498 506.119H563.139V537.966C563.139 558.3 563.629 569.814 564.363 569.814C565.832 569.814 618.963 550.093 775.54 491.543C811.655 478.069 809.206 479.049 809.206 478.069C809.206 476.967 802.596 474.272 774.316 463.861C762.196 459.329 742.976 452.224 731.469 447.937C720.083 443.65 699.149 435.933 684.948 430.789C670.87 425.522 638.061 413.395 612.23 403.719C586.399 394.042 564.73 386.08 564.118 386.08C563.629 386.08 563.139 400.412 563.139 417.928V449.775H514.538H465.814L592.52 322.999L719.104 196.345L731.101 207.982C737.59 214.474 743.711 219.496 744.445 219.251C745.547 218.883 814.103 71.1619 814.103 69.202C814.103 67.8546 803.33 72.6317 738.324 102.396Z" fill="#8B5BFF"/>
<path d="M1188.56 266.8H1234.64V397.36C1234.64 415.28 1230.54 428.336 1222.35 436.528C1214.33 444.549 1201.36 448.56 1183.44 448.56H1124.56C1106.64 448.56 1093.58 444.549 1085.39 436.528C1077.37 428.336 1073.36 415.28 1073.36 397.36V266.8H1119.44V397.36C1119.44 407.6 1124.56 412.72 1134.8 412.72H1173.2C1183.44 412.72 1188.56 407.6 1188.56 397.36V266.8ZM1421.52 446H1372.88L1311.44 338.48V446H1265.36V266.8H1314L1375.44 374.32V266.8H1421.52V446ZM1536.84 446H1444.68V410.16H1467.72V302.64H1444.68V266.8H1536.84V302.64H1513.8V410.16H1536.84V446ZM1646.9 446H1600.82V302.64H1547.06V266.8H1700.66V302.64H1646.9V446ZM1732.61 446H1682.69L1750.53 266.8H1801.73L1869.57 446H1819.65L1808.13 414H1744.13L1732.61 446ZM1755.65 380.72H1796.61L1776.13 320.56L1755.65 380.72ZM1982.2 266.8C2001.49 266.8 2016.08 271.835 2025.98 281.904C2036.05 291.803 2041.08 306.395 2041.08 325.68V387.12C2041.08 406.405 2036.05 421.083 2025.98 431.152C2016.08 441.051 2001.49 446 1982.2 446H1882.36V266.8H1982.2ZM1995 325.68C1995 310.32 1987.32 302.64 1971.96 302.64H1928.44V410.16H1971.96C1987.32 410.16 1995 402.48 1995 387.12V325.68ZM2208.69 446H2066.61V266.8H2208.69V302.64H2112.69V337.2H2188.21V373.04H2112.69V410.16H2208.69V446ZM2221.43 407.6H2267.51V446H2221.43V407.6ZM2444.21 346.16L2408.37 410.16H2372.53L2336.69 346.16V446H2290.61V266.8H2339.25L2390.45 361.52L2441.65 266.8H2490.29V446H2444.21V346.16ZM2620.95 266.8C2640.24 266.8 2654.83 271.835 2664.73 281.904C2674.8 291.803 2679.83 306.395 2679.83 325.68V387.12C2679.83 406.405 2674.8 421.083 2664.73 431.152C2654.83 441.051 2640.24 446 2620.95 446H2521.11V266.8H2620.95ZM2633.75 325.68C2633.75 310.32 2626.07 302.64 2610.71 302.64H2567.19V410.16H2610.71C2626.07 410.16 2633.75 402.48 2633.75 387.12V325.68Z" fill="url(#paint0_linear_20_29)"/>
<path d="M1136.49 549.52C1139.88 549.52 1143.72 548.88 1148.01 547.6V541.84H1134.09C1133.13 541.84 1132.33 542.16 1131.69 542.8C1131.05 543.44 1130.73 544.24 1130.73 545.2V546.16C1130.73 547.12 1131.05 547.92 1131.69 548.56C1132.33 549.2 1133.13 549.52 1134.09 549.52H1136.49ZM1118.73 512.08C1130.44 510.8 1141 510.16 1150.41 510.16C1154.76 510.16 1158.25 511.472 1160.88 514.096C1163.5 516.72 1164.81 520.208 1164.81 524.56V562H1149.93L1148.97 557.2C1145.96 559.184 1142.86 560.656 1139.66 561.616C1136.52 562.512 1133.87 562.96 1131.69 562.96H1128.33C1123.98 562.96 1120.49 561.648 1117.87 559.024C1115.24 556.4 1113.93 552.912 1113.93 548.56V544.24C1113.93 539.888 1115.24 536.4 1117.87 533.776C1120.49 531.152 1123.98 529.84 1128.33 529.84H1148.01V526C1148.01 525.04 1147.69 524.24 1147.05 523.6C1146.41 522.96 1145.61 522.64 1144.65 522.64C1140.49 522.64 1135.88 522.832 1130.83 523.216C1125.84 523.6 1121.8 523.888 1118.73 524.08V512.08ZM1209.43 562L1208.47 557.2C1205.46 559.184 1202.35 560.656 1199.15 561.616C1196.02 562.512 1193.36 562.96 1191.19 562.96H1186.87C1182.51 562.96 1179.03 561.648 1176.4 559.024C1173.78 556.4 1172.47 552.912 1172.47 548.56V526.48C1172.47 521.68 1173.81 517.936 1176.5 515.248C1179.25 512.496 1183.03 511.12 1187.83 511.12H1207.51V494.8H1224.31V562H1209.43ZM1195.99 549.04C1199.38 549.04 1203.22 548.4 1207.51 547.12V524.08H1193.11C1190.55 524.08 1189.27 525.36 1189.27 527.92V545.68C1189.27 546.64 1189.59 547.44 1190.23 548.08C1190.87 548.72 1191.67 549.04 1192.62 549.04H1195.99ZM1238.69 579.28C1232.74 579.28 1226.66 578.96 1220.45 578.32V565.84H1232.93C1233.89 565.84 1234.69 565.52 1235.33 564.88C1235.97 564.24 1236.29 563.44 1236.29 562.48V513.04H1253.09V564.88C1253.09 569.232 1251.78 572.72 1249.16 575.344C1246.53 577.968 1243.05 579.28 1238.69 579.28ZM1236.29 493.84H1253.09V507.28H1236.29V493.84ZM1286.2 549.04C1289.59 549.04 1293.43 548.4 1297.72 547.12V511.12H1314.52V562H1299.64L1298.68 557.2C1295.67 559.184 1292.56 560.656 1289.36 561.616C1286.23 562.512 1283.57 562.96 1281.4 562.96H1277.08C1272.72 562.96 1269.24 561.648 1266.61 559.024C1263.99 556.4 1262.68 552.912 1262.68 548.56V511.12H1279.48V545.68C1279.48 546.64 1279.8 547.44 1280.44 548.08C1281.08 548.72 1281.88 549.04 1282.84 549.04H1286.2ZM1322.16 548.56C1335.15 549.52 1345.39 550 1352.88 550C1353.84 550 1354.64 549.68 1355.28 549.04C1355.92 548.4 1356.24 547.6 1356.24 546.64V543.28H1335.6C1331.25 543.28 1327.76 541.968 1325.14 539.344C1322.51 536.72 1321.2 533.232 1321.2 528.88V525.52C1321.2 521.168 1322.51 517.68 1325.14 515.056C1327.76 512.432 1331.25 511.12 1335.6 511.12H1368.24V523.6H1341.36C1340.4 523.6 1339.6 523.92 1338.96 524.56C1338.32 525.2 1338 526 1338 526.96C1338 527.92 1338.32 528.72 1338.96 529.36C1339.6 530 1340.4 530.32 1341.36 530.32H1358.64C1362.99 530.32 1366.48 531.632 1369.11 534.256C1371.73 536.88 1373.04 540.368 1373.04 544.72V548.56C1373.04 552.912 1371.73 556.4 1369.11 559.024C1366.48 561.648 1362.99 562.96 1358.64 562.96C1347.31 562.96 1335.15 562.32 1322.16 561.04V548.56ZM1415.29 562C1409.08 562.64 1403 562.96 1397.05 562.96C1392.7 562.96 1389.21 561.648 1386.58 559.024C1383.96 556.4 1382.65 552.912 1382.65 548.56V524.08H1376.89V511.12H1382.65L1384.57 499.6H1399.45V511.12H1411.45V524.08H1399.45V546.16C1399.45 547.12 1399.77 547.92 1400.41 548.56C1401.05 549.2 1401.85 549.52 1402.81 549.52H1415.29V562ZM1464.27 579.28C1460.88 579.28 1456.72 578.96 1451.79 578.32V565.84H1460.43C1462.86 565.84 1464.43 565.168 1465.14 563.824C1465.9 562.48 1465.78 560.592 1464.75 558.16L1445.07 511.12H1462.83L1474.83 543.76L1484.91 511.12H1502.67L1483.47 563.92C1481.62 568.976 1479.22 572.784 1476.27 575.344C1473.33 577.968 1469.33 579.28 1464.27 579.28ZM1556.48 547.6C1556.48 552.4 1555.11 556.176 1552.36 558.928C1549.67 561.616 1545.92 562.96 1541.12 562.96H1519.04C1514.24 562.96 1510.47 561.616 1507.72 558.928C1505.03 556.176 1503.68 552.4 1503.68 547.6V525.52C1503.68 520.72 1505.03 516.976 1507.72 514.288C1510.47 511.536 1514.24 510.16 1519.04 510.16H1541.12C1545.92 510.16 1549.67 511.536 1552.36 514.288C1555.11 516.976 1556.48 520.72 1556.48 525.52V547.6ZM1539.68 526.96C1539.68 524.4 1538.4 523.12 1535.84 523.12H1524.32C1521.76 523.12 1520.48 524.4 1520.48 526.96V546.16C1520.48 548.72 1521.76 550 1524.32 550H1535.84C1538.4 550 1539.68 548.72 1539.68 546.16V526.96ZM1588.63 549.04C1592.02 549.04 1595.86 548.4 1600.15 547.12V511.12H1616.95V562H1602.07L1601.11 557.2C1598.1 559.184 1595 560.656 1591.8 561.616C1588.66 562.512 1586.01 562.96 1583.83 562.96H1579.51C1575.16 562.96 1571.67 561.648 1569.05 559.024C1566.42 556.4 1565.11 552.912 1565.11 548.56V511.12H1581.91V545.68C1581.91 546.64 1582.23 547.44 1582.87 548.08C1583.51 548.72 1584.31 549.04 1585.27 549.04H1588.63ZM1655.8 525.04C1651.77 525.04 1647.61 526 1643.32 527.92V562H1626.52V511.12H1641.4L1642.36 517.36C1647.86 512.56 1653.62 510.16 1659.64 510.16H1663.96V525.04H1655.8ZM1727.78 524.08C1724.38 524.08 1720.54 524.72 1716.26 526V562H1699.46V511.12H1714.34L1715.3 515.92C1718.3 513.936 1721.38 512.496 1724.51 511.6C1727.71 510.64 1730.4 510.16 1732.58 510.16H1736.9C1741.25 510.16 1744.74 511.472 1747.36 514.096C1749.98 516.72 1751.3 520.208 1751.3 524.56V562H1734.5V527.44C1734.5 526.48 1734.18 525.68 1733.54 525.04C1732.9 524.4 1732.1 524.08 1731.14 524.08H1727.78ZM1811.77 547.6C1811.77 552.4 1810.39 556.176 1807.64 558.928C1804.95 561.616 1801.2 562.96 1796.41 562.96H1774.33C1769.53 562.96 1765.75 561.616 1763 558.928C1760.31 556.176 1758.97 552.4 1758.97 547.6V525.52C1758.97 520.72 1760.31 516.976 1763 514.288C1765.75 511.536 1769.53 510.16 1774.33 510.16H1796.41C1801.2 510.16 1804.95 511.536 1807.64 514.288C1810.39 516.976 1811.77 520.72 1811.77 525.52V547.6ZM1794.97 526.96C1794.97 524.4 1793.69 523.12 1791.13 523.12H1779.61C1777.05 523.12 1775.77 524.4 1775.77 526.96V546.16C1775.77 548.72 1777.05 550 1779.61 550H1791.13C1793.69 550 1794.97 548.72 1794.97 546.16V526.96ZM1855.91 562C1849.71 562.64 1843.63 562.96 1837.67 562.96C1833.32 562.96 1829.83 561.648 1827.21 559.024C1824.59 556.4 1823.27 552.912 1823.27 548.56V524.08H1817.51V511.12H1823.27L1825.19 499.6H1840.07V511.12H1852.07V524.08H1840.07V546.16C1840.07 547.12 1840.39 547.92 1841.03 548.56C1841.67 549.2 1842.47 549.52 1843.43 549.52H1855.91V562ZM1881.42 522.16C1878.86 522.16 1877.58 523.44 1877.58 526V531.28H1893.9V526C1893.9 523.44 1892.62 522.16 1890.06 522.16H1881.42ZM1908.78 561.04C1896.43 562.32 1885.23 562.96 1875.18 562.96C1870.83 562.96 1867.34 561.648 1864.71 559.024C1862.09 556.4 1860.78 552.912 1860.78 548.56V525.52C1860.78 520.72 1862.12 516.976 1864.81 514.288C1867.56 511.536 1871.34 510.16 1876.14 510.16H1895.34C1900.14 510.16 1903.88 511.536 1906.57 514.288C1909.32 516.976 1910.7 520.72 1910.7 525.52V543.28H1877.58V547.12C1877.58 548.08 1877.9 548.88 1878.54 549.52C1879.18 550.16 1879.98 550.48 1880.94 550.48C1887.27 550.48 1896.55 550 1908.78 549.04V561.04ZM1917.38 548.56C1930.37 549.52 1940.61 550 1948.1 550C1949.06 550 1949.86 549.68 1950.5 549.04C1951.14 548.4 1951.46 547.6 1951.46 546.64V543.28H1930.82C1926.47 543.28 1922.98 541.968 1920.36 539.344C1917.73 536.72 1916.42 533.232 1916.42 528.88V525.52C1916.42 521.168 1917.73 517.68 1920.36 515.056C1922.98 512.432 1926.47 511.12 1930.82 511.12H1963.46V523.6H1936.58C1935.62 523.6 1934.82 523.92 1934.18 524.56C1933.54 525.2 1933.22 526 1933.22 526.96C1933.22 527.92 1933.54 528.72 1934.18 529.36C1934.82 530 1935.62 530.32 1936.58 530.32H1953.86C1958.21 530.32 1961.7 531.632 1964.32 534.256C1966.95 536.88 1968.26 540.368 1968.26 544.72V548.56C1968.26 552.912 1966.95 556.4 1964.32 559.024C1961.7 561.648 1958.21 562.96 1953.86 562.96C1942.53 562.96 1930.37 562.32 1917.38 561.04V548.56ZM2023.93 549.52C2027.32 549.52 2031.16 548.88 2035.45 547.6V541.84H2021.53C2020.57 541.84 2019.77 542.16 2019.13 542.8C2018.49 543.44 2018.17 544.24 2018.17 545.2V546.16C2018.17 547.12 2018.49 547.92 2019.13 548.56C2019.77 549.2 2020.57 549.52 2021.53 549.52H2023.93ZM2006.17 512.08C2017.88 510.8 2028.44 510.16 2037.85 510.16C2042.2 510.16 2045.69 511.472 2048.31 514.096C2050.94 516.72 2052.25 520.208 2052.25 524.56V562H2037.37L2036.41 557.2C2033.4 559.184 2030.3 560.656 2027.1 561.616C2023.96 562.512 2021.3 562.96 2019.13 562.96H2015.77C2011.42 562.96 2007.93 561.648 2005.3 559.024C2002.68 556.4 2001.37 552.912 2001.37 548.56V544.24C2001.37 539.888 2002.68 536.4 2005.3 533.776C2007.93 531.152 2011.42 529.84 2015.77 529.84H2035.45V526C2035.45 525.04 2035.13 524.24 2034.49 523.6C2033.85 522.96 2033.05 522.64 2032.09 522.64C2027.93 522.64 2023.32 522.832 2018.26 523.216C2013.27 523.6 2009.24 523.888 2006.17 524.08V512.08ZM2089.18 524.08C2085.79 524.08 2081.95 524.72 2077.66 526V562H2060.86V511.12H2075.74L2076.7 515.92C2079.71 513.936 2082.78 512.496 2085.92 511.6C2089.12 510.64 2091.81 510.16 2093.98 510.16H2098.3C2102.65 510.16 2106.14 511.472 2108.77 514.096C2111.39 516.72 2112.7 520.208 2112.7 524.56V562H2095.9V527.44C2095.9 526.48 2095.58 525.68 2094.94 525.04C2094.3 524.4 2093.5 524.08 2092.54 524.08H2089.18ZM2157.33 562L2156.37 557.2C2153.36 559.184 2150.26 560.656 2147.06 561.616C2143.92 562.512 2141.27 562.96 2139.09 562.96H2134.77C2130.42 562.96 2126.93 561.648 2124.31 559.024C2121.68 556.4 2120.37 552.912 2120.37 548.56V526.48C2120.37 521.68 2121.72 517.936 2124.4 515.248C2127.16 512.496 2130.93 511.12 2135.73 511.12H2155.41V494.8H2172.21V562H2157.33ZM2143.89 549.04C2147.28 549.04 2151.12 548.4 2155.41 547.12V524.08H2141.01C2138.45 524.08 2137.17 525.36 2137.17 527.92V545.68C2137.17 546.64 2137.49 547.44 2138.13 548.08C2138.77 548.72 2139.57 549.04 2140.53 549.04H2143.89ZM2208.66 548.56C2221.65 549.52 2231.89 550 2239.38 550C2240.34 550 2241.14 549.68 2241.78 549.04C2242.42 548.4 2242.74 547.6 2242.74 546.64V543.28H2222.1C2217.75 543.28 2214.26 541.968 2211.64 539.344C2209.01 536.72 2207.7 533.232 2207.7 528.88V525.52C2207.7 521.168 2209.01 517.68 2211.64 515.056C2214.26 512.432 2217.75 511.12 2222.1 511.12H2254.74V523.6H2227.86C2226.9 523.6 2226.1 523.92 2225.46 524.56C2224.82 525.2 2224.5 526 2224.5 526.96C2224.5 527.92 2224.82 528.72 2225.46 529.36C2226.1 530 2226.9 530.32 2227.86 530.32H2245.14C2249.49 530.32 2252.98 531.632 2255.61 534.256C2258.23 536.88 2259.54 540.368 2259.54 544.72V548.56C2259.54 552.912 2258.23 556.4 2255.61 559.024C2252.98 561.648 2249.49 562.96 2245.14 562.96C2233.81 562.96 2221.65 562.32 2208.66 561.04V548.56ZM2277.83 579.28C2274.44 579.28 2270.28 578.96 2265.35 578.32V565.84H2273.99C2276.43 565.84 2277.99 565.168 2278.7 563.824C2279.47 562.48 2279.34 560.592 2278.31 558.16L2258.63 511.12H2276.39L2288.39 543.76L2298.47 511.12H2316.23L2297.03 563.92C2295.18 568.976 2292.78 572.784 2289.83 575.344C2286.89 577.968 2282.89 579.28 2277.83 579.28ZM2317.22 548.56C2330.22 549.52 2340.46 550 2347.94 550C2348.9 550 2349.7 549.68 2350.34 549.04C2350.98 548.4 2351.3 547.6 2351.3 546.64V543.28H2330.66C2326.31 543.28 2322.82 541.968 2320.2 539.344C2317.58 536.72 2316.26 533.232 2316.26 528.88V525.52C2316.26 521.168 2317.58 517.68 2320.2 515.056C2322.82 512.432 2326.31 511.12 2330.66 511.12H2363.3V523.6H2336.42C2335.46 523.6 2334.66 523.92 2334.02 524.56C2333.38 525.2 2333.06 526 2333.06 526.96C2333.06 527.92 2333.38 528.72 2334.02 529.36C2334.66 530 2335.46 530.32 2336.42 530.32H2353.7C2358.06 530.32 2361.54 531.632 2364.17 534.256C2366.79 536.88 2368.1 540.368 2368.1 544.72V548.56C2368.1 552.912 2366.79 556.4 2364.17 559.024C2361.54 561.648 2358.06 562.96 2353.7 562.96C2342.38 562.96 2330.22 562.32 2317.22 561.04V548.56ZM2410.35 562C2404.14 562.64 2398.06 562.96 2392.11 562.96C2387.76 562.96 2384.27 561.648 2381.65 559.024C2379.02 556.4 2377.71 552.912 2377.71 548.56V524.08H2371.95V511.12H2377.71L2379.63 499.6H2394.51V511.12H2406.51V524.08H2394.51V546.16C2394.51 547.12 2394.83 547.92 2395.47 548.56C2396.11 549.2 2396.91 549.52 2397.87 549.52H2410.35V562ZM2435.86 522.16C2433.3 522.16 2432.02 523.44 2432.02 526V531.28H2448.34V526C2448.34 523.44 2447.06 522.16 2444.5 522.16H2435.86ZM2463.22 561.04C2450.86 562.32 2439.66 562.96 2429.62 562.96C2425.26 562.96 2421.78 561.648 2419.15 559.024C2416.53 556.4 2415.22 552.912 2415.22 548.56V525.52C2415.22 520.72 2416.56 516.976 2419.25 514.288C2422 511.536 2425.78 510.16 2430.58 510.16H2449.78C2454.58 510.16 2458.32 511.536 2461.01 514.288C2463.76 516.976 2465.14 520.72 2465.14 525.52V543.28H2432.02V547.12C2432.02 548.08 2432.34 548.88 2432.98 549.52C2433.62 550.16 2434.42 550.48 2435.38 550.48C2441.71 550.48 2450.99 550 2463.22 549.04V561.04ZM2507.82 510.16C2513 510.16 2517 512.08 2519.82 515.92C2522.76 513.936 2525.93 512.496 2529.32 511.6C2532.78 510.64 2535.85 510.16 2538.54 510.16H2539.5C2543.85 510.16 2547.34 511.472 2549.96 514.096C2552.59 516.72 2553.9 520.208 2553.9 524.56V562H2537.1V527.44C2537.1 526.48 2536.78 525.68 2536.14 525.04C2535.5 524.4 2534.7 524.08 2533.74 524.08H2533.26C2530.38 524.08 2526.7 524.72 2522.22 526V562H2505.42V527.44C2505.42 526.48 2505.1 525.68 2504.46 525.04C2503.82 524.4 2503.02 524.08 2502.06 524.08H2501.58C2498.7 524.08 2495.02 524.72 2490.54 526V562H2473.74V511.12H2488.62L2489.58 515.92C2492.59 513.936 2495.66 512.496 2498.79 511.6C2501.99 510.64 2504.68 510.16 2506.86 510.16H2507.82ZM2560.6 548.56C2573.59 549.52 2583.83 550 2591.32 550C2592.28 550 2593.08 549.68 2593.72 549.04C2594.36 548.4 2594.68 547.6 2594.68 546.64V543.28H2574.04C2569.69 543.28 2566.2 541.968 2563.57 539.344C2560.95 536.72 2559.64 533.232 2559.64 528.88V525.52C2559.64 521.168 2560.95 517.68 2563.57 515.056C2566.2 512.432 2569.69 511.12 2574.04 511.12H2606.68V523.6H2579.8C2578.84 523.6 2578.04 523.92 2577.4 524.56C2576.76 525.2 2576.44 526 2576.44 526.96C2576.44 527.92 2576.76 528.72 2577.4 529.36C2578.04 530 2578.84 530.32 2579.8 530.32H2597.08C2601.43 530.32 2604.92 531.632 2607.54 534.256C2610.17 536.88 2611.48 540.368 2611.48 544.72V548.56C2611.48 552.912 2610.17 556.4 2607.54 559.024C2604.92 561.648 2601.43 562.96 2597.08 562.96C2585.75 562.96 2573.59 562.32 2560.6 561.04V548.56ZM2616.29 547.6H2633.57V562H2616.29V547.6Z" fill="white"/>
</g>
<defs>
<linearGradient id="paint0_linear_20_29" x1="1058" y1="399" x2="2690" y2="399" gradientUnits="userSpaceOnUse">
<stop stop-color="#8B5BFF"/>
<stop offset="1" stop-color="#5C4B8A"/>
</linearGradient>
<clipPath id="clip0_20_29">
<rect width="2690" height="883" fill="white"/>
</clipPath>
</defs>
</svg>
